<mxfile host="app.diagrams.net" modified="2023-11-12T12:19:17.916Z" agent="Mozilla/5.0 (Windows NT 10.0; Win64; x64) AppleWebKit/537.36 (KHTML, like Gecko) Chrome/119.0.0.0 Safari/537.36 Edg/119.0.0.0" etag="bK29_Vq6IMBjO6kcg7rT" version="22.1.0" type="github">
  <diagram name="第 1 页" id="ljXyr0XeKPO4Yniennvs">
    <mxGraphModel dx="1157" dy="669" grid="1" gridSize="10" guides="1" tooltips="1" connect="1" arrows="1" fold="1" page="1" pageScale="1" pageWidth="827" pageHeight="1169" math="0" shadow="0">
      <root>
        <mxCell id="0" />
        <mxCell id="1" parent="0" />
        <mxCell id="FvBfCpJyxH-kdppGqNGc-45" style="edgeStyle=orthogonalEdgeStyle;rounded=0;orthogonalLoop=1;jettySize=auto;html=1;shape=flexArrow;" parent="1" source="FvBfCpJyxH-kdppGqNGc-41" target="FvBfCpJyxH-kdppGqNGc-37" edge="1">
          <mxGeometry relative="1" as="geometry" />
        </mxCell>
        <mxCell id="FvBfCpJyxH-kdppGqNGc-57" style="edgeStyle=orthogonalEdgeStyle;rounded=0;orthogonalLoop=1;jettySize=auto;html=1;entryX=1;entryY=0.5;entryDx=0;entryDy=0;endArrow=none;endFill=0;" parent="1" source="FvBfCpJyxH-kdppGqNGc-41" target="FvBfCpJyxH-kdppGqNGc-23" edge="1">
          <mxGeometry relative="1" as="geometry" />
        </mxCell>
        <mxCell id="FvBfCpJyxH-kdppGqNGc-41" value="" style="rounded=0;whiteSpace=wrap;html=1;dashed=1;" parent="1" vertex="1">
          <mxGeometry x="215.75" y="609" width="600" height="180" as="geometry" />
        </mxCell>
        <mxCell id="FvBfCpJyxH-kdppGqNGc-38" value="" style="rounded=0;whiteSpace=wrap;html=1;dashed=1;" parent="1" vertex="1">
          <mxGeometry x="220.75" y="619" width="585" height="90" as="geometry" />
        </mxCell>
        <mxCell id="FvBfCpJyxH-kdppGqNGc-37" value="" style="rounded=0;whiteSpace=wrap;html=1;dashed=1;" parent="1" vertex="1">
          <mxGeometry x="215.75" y="840" width="600" height="60" as="geometry" />
        </mxCell>
        <mxCell id="FvBfCpJyxH-kdppGqNGc-44" style="edgeStyle=orthogonalEdgeStyle;rounded=0;orthogonalLoop=1;jettySize=auto;html=1;entryX=0.5;entryY=0;entryDx=0;entryDy=0;shape=flexArrow;" parent="1" source="FvBfCpJyxH-kdppGqNGc-36" target="FvBfCpJyxH-kdppGqNGc-41" edge="1">
          <mxGeometry relative="1" as="geometry" />
        </mxCell>
        <mxCell id="FvBfCpJyxH-kdppGqNGc-36" value="" style="rounded=0;whiteSpace=wrap;html=1;dashed=1;" parent="1" vertex="1">
          <mxGeometry x="215.75" y="412.49" width="600" height="146.25" as="geometry" />
        </mxCell>
        <mxCell id="FvBfCpJyxH-kdppGqNGc-42" style="edgeStyle=orthogonalEdgeStyle;rounded=0;orthogonalLoop=1;jettySize=auto;html=1;entryX=0.5;entryY=0;entryDx=0;entryDy=0;shape=flexArrow;" parent="1" source="FvBfCpJyxH-kdppGqNGc-35" target="FvBfCpJyxH-kdppGqNGc-36" edge="1">
          <mxGeometry relative="1" as="geometry" />
        </mxCell>
        <mxCell id="FvBfCpJyxH-kdppGqNGc-35" value="" style="rounded=0;whiteSpace=wrap;html=1;dashed=1;" parent="1" vertex="1">
          <mxGeometry x="215.75" y="230" width="600" height="132.5" as="geometry" />
        </mxCell>
        <mxCell id="FvBfCpJyxH-kdppGqNGc-46" style="edgeStyle=orthogonalEdgeStyle;rounded=0;orthogonalLoop=1;jettySize=auto;html=1;entryX=0.5;entryY=0;entryDx=0;entryDy=0;shape=flexArrow;" parent="1" source="FvBfCpJyxH-kdppGqNGc-34" target="FvBfCpJyxH-kdppGqNGc-35" edge="1">
          <mxGeometry relative="1" as="geometry" />
        </mxCell>
        <mxCell id="FvBfCpJyxH-kdppGqNGc-34" value="" style="rounded=0;whiteSpace=wrap;html=1;dashed=1;" parent="1" vertex="1">
          <mxGeometry x="215.75" y="100" width="600" height="80" as="geometry" />
        </mxCell>
        <mxCell id="FvBfCpJyxH-kdppGqNGc-2" value="&lt;font style=&quot;font-size: 18px;&quot;&gt;研究目标&lt;/font&gt;" style="shape=hexagon;perimeter=hexagonPerimeter2;whiteSpace=wrap;html=1;fixedSize=1;" parent="1" vertex="1">
          <mxGeometry x="15.75" y="30" width="140" height="40" as="geometry" />
        </mxCell>
        <mxCell id="FvBfCpJyxH-kdppGqNGc-3" value="&lt;font style=&quot;font-size: 18px;&quot;&gt;研究内容与研究方法&lt;/font&gt;" style="shape=hexagon;perimeter=hexagonPerimeter2;whiteSpace=wrap;html=1;fixedSize=1;" parent="1" vertex="1">
          <mxGeometry x="385.75" y="30" width="220" height="40" as="geometry" />
        </mxCell>
        <mxCell id="FvBfCpJyxH-kdppGqNGc-47" style="edgeStyle=orthogonalEdgeStyle;rounded=0;orthogonalLoop=1;jettySize=auto;html=1;entryX=0.5;entryY=0;entryDx=0;entryDy=0;" parent="1" source="FvBfCpJyxH-kdppGqNGc-4" target="FvBfCpJyxH-kdppGqNGc-9" edge="1">
          <mxGeometry relative="1" as="geometry" />
        </mxCell>
        <mxCell id="FvBfCpJyxH-kdppGqNGc-51" style="edgeStyle=orthogonalEdgeStyle;rounded=0;orthogonalLoop=1;jettySize=auto;html=1;entryX=0;entryY=0.5;entryDx=0;entryDy=0;endArrow=none;endFill=0;" parent="1" source="FvBfCpJyxH-kdppGqNGc-4" target="FvBfCpJyxH-kdppGqNGc-34" edge="1">
          <mxGeometry relative="1" as="geometry" />
        </mxCell>
        <mxCell id="FvBfCpJyxH-kdppGqNGc-4" value="&lt;font style=&quot;font-size: 18px;&quot;&gt;绪论&lt;/font&gt;" style="rounded=1;whiteSpace=wrap;html=1;" parent="1" vertex="1">
          <mxGeometry x="40.75" y="120" width="90" height="40" as="geometry" />
        </mxCell>
        <mxCell id="FvBfCpJyxH-kdppGqNGc-5" value="&lt;font style=&quot;font-size: 18px;&quot;&gt;研究背景与意义&lt;/font&gt;" style="rounded=1;whiteSpace=wrap;html=1;" parent="1" vertex="1">
          <mxGeometry x="225.75" y="120" width="150" height="40" as="geometry" />
        </mxCell>
        <mxCell id="FvBfCpJyxH-kdppGqNGc-6" value="&lt;font style=&quot;font-size: 18px;&quot;&gt;研究内容与方法&lt;/font&gt;" style="rounded=1;whiteSpace=wrap;html=1;" parent="1" vertex="1">
          <mxGeometry x="385.75" y="120" width="150" height="40" as="geometry" />
        </mxCell>
        <mxCell id="FvBfCpJyxH-kdppGqNGc-7" value="&lt;font style=&quot;font-size: 18px;&quot;&gt;国内外研究现状&lt;/font&gt;" style="rounded=1;whiteSpace=wrap;html=1;" parent="1" vertex="1">
          <mxGeometry x="545.75" y="120" width="150" height="40" as="geometry" />
        </mxCell>
        <mxCell id="FvBfCpJyxH-kdppGqNGc-8" value="&lt;font style=&quot;font-size: 18px;&quot;&gt;创新点&lt;/font&gt;" style="rounded=1;whiteSpace=wrap;html=1;" parent="1" vertex="1">
          <mxGeometry x="705.75" y="120" width="100" height="40" as="geometry" />
        </mxCell>
        <mxCell id="FvBfCpJyxH-kdppGqNGc-48" style="edgeStyle=orthogonalEdgeStyle;rounded=0;orthogonalLoop=1;jettySize=auto;html=1;entryX=0.5;entryY=0;entryDx=0;entryDy=0;" parent="1" source="FvBfCpJyxH-kdppGqNGc-9" target="FvBfCpJyxH-kdppGqNGc-16" edge="1">
          <mxGeometry relative="1" as="geometry" />
        </mxCell>
        <mxCell id="FvBfCpJyxH-kdppGqNGc-52" style="edgeStyle=orthogonalEdgeStyle;rounded=0;orthogonalLoop=1;jettySize=auto;html=1;entryX=0;entryY=0.5;entryDx=0;entryDy=0;endArrow=none;endFill=0;" parent="1" source="FvBfCpJyxH-kdppGqNGc-9" target="FvBfCpJyxH-kdppGqNGc-35" edge="1">
          <mxGeometry relative="1" as="geometry" />
        </mxCell>
        <mxCell id="FvBfCpJyxH-kdppGqNGc-9" value="&lt;font style=&quot;font-size: 18px;&quot;&gt;基本理论与方法&lt;/font&gt;" style="rounded=1;whiteSpace=wrap;html=1;" parent="1" vertex="1">
          <mxGeometry x="18.25" y="276.25" width="135" height="40" as="geometry" />
        </mxCell>
        <mxCell id="FvBfCpJyxH-kdppGqNGc-10" value="&lt;font style=&quot;font-size: 18px;&quot;&gt;Borderline-SMOTE算法&lt;/font&gt;" style="rounded=1;whiteSpace=wrap;html=1;" parent="1" vertex="1">
          <mxGeometry x="295.75" y="240" width="210" height="40" as="geometry" />
        </mxCell>
        <mxCell id="FvBfCpJyxH-kdppGqNGc-11" value="&lt;font style=&quot;font-size: 18px;&quot;&gt;OpenFE算法&lt;/font&gt;" style="rounded=1;whiteSpace=wrap;html=1;" parent="1" vertex="1">
          <mxGeometry x="595.75" y="240" width="150" height="40" as="geometry" />
        </mxCell>
        <mxCell id="FvBfCpJyxH-kdppGqNGc-12" value="&lt;span style=&quot;font-size: 18px;&quot;&gt;卷积神经网络&lt;/span&gt;" style="rounded=1;whiteSpace=wrap;html=1;" parent="1" vertex="1">
          <mxGeometry x="225.75" y="310" width="150" height="40" as="geometry" />
        </mxCell>
        <mxCell id="FvBfCpJyxH-kdppGqNGc-13" value="&lt;span style=&quot;font-size: 18px;&quot;&gt;门控循环单元&lt;/span&gt;" style="rounded=1;whiteSpace=wrap;html=1;" parent="1" vertex="1">
          <mxGeometry x="445.75" y="310" width="150" height="40" as="geometry" />
        </mxCell>
        <mxCell id="FvBfCpJyxH-kdppGqNGc-14" value="&lt;span style=&quot;font-size: 18px;&quot;&gt;注意力机制&lt;/span&gt;" style="rounded=1;whiteSpace=wrap;html=1;" parent="1" vertex="1">
          <mxGeometry x="655.75" y="310" width="150" height="40" as="geometry" />
        </mxCell>
        <mxCell id="FvBfCpJyxH-kdppGqNGc-49" style="edgeStyle=orthogonalEdgeStyle;rounded=0;orthogonalLoop=1;jettySize=auto;html=1;entryX=0.5;entryY=0;entryDx=0;entryDy=0;" parent="1" source="FvBfCpJyxH-kdppGqNGc-16" target="FvBfCpJyxH-kdppGqNGc-23" edge="1">
          <mxGeometry relative="1" as="geometry" />
        </mxCell>
        <mxCell id="FvBfCpJyxH-kdppGqNGc-53" style="edgeStyle=orthogonalEdgeStyle;rounded=0;orthogonalLoop=1;jettySize=auto;html=1;entryX=0;entryY=0.5;entryDx=0;entryDy=0;endArrow=none;endFill=0;" parent="1" source="FvBfCpJyxH-kdppGqNGc-16" target="FvBfCpJyxH-kdppGqNGc-36" edge="1">
          <mxGeometry relative="1" as="geometry" />
        </mxCell>
        <mxCell id="FvBfCpJyxH-kdppGqNGc-16" value="&lt;font style=&quot;font-size: 18px;&quot;&gt;预处理及特征工程&lt;/font&gt;" style="rounded=1;whiteSpace=wrap;html=1;" parent="1" vertex="1">
          <mxGeometry x="12" y="465.62" width="147.5" height="40" as="geometry" />
        </mxCell>
        <mxCell id="FvBfCpJyxH-kdppGqNGc-65" style="edgeStyle=orthogonalEdgeStyle;rounded=0;orthogonalLoop=1;jettySize=auto;html=1;entryX=0;entryY=0.5;entryDx=0;entryDy=0;" parent="1" source="FvBfCpJyxH-kdppGqNGc-17" target="FvBfCpJyxH-kdppGqNGc-18" edge="1">
          <mxGeometry relative="1" as="geometry" />
        </mxCell>
        <mxCell id="FvBfCpJyxH-kdppGqNGc-17" value="&lt;span style=&quot;font-size: 18px;&quot;&gt;样本选取&lt;/span&gt;" style="rounded=1;whiteSpace=wrap;html=1;" parent="1" vertex="1">
          <mxGeometry x="225.75" y="431.24" width="160" height="40" as="geometry" />
        </mxCell>
        <mxCell id="FvBfCpJyxH-kdppGqNGc-66" style="edgeStyle=orthogonalEdgeStyle;rounded=0;orthogonalLoop=1;jettySize=auto;html=1;" parent="1" source="FvBfCpJyxH-kdppGqNGc-18" target="FvBfCpJyxH-kdppGqNGc-21" edge="1">
          <mxGeometry relative="1" as="geometry" />
        </mxCell>
        <mxCell id="FvBfCpJyxH-kdppGqNGc-18" value="&lt;span style=&quot;font-size: 18px;&quot;&gt;归一化&lt;/span&gt;" style="rounded=1;whiteSpace=wrap;html=1;" parent="1" vertex="1">
          <mxGeometry x="440.75" y="431.24" width="150" height="40" as="geometry" />
        </mxCell>
        <mxCell id="FvBfCpJyxH-kdppGqNGc-68" style="edgeStyle=orthogonalEdgeStyle;rounded=0;orthogonalLoop=1;jettySize=auto;html=1;entryX=1;entryY=0.5;entryDx=0;entryDy=0;" parent="1" source="FvBfCpJyxH-kdppGqNGc-19" target="FvBfCpJyxH-kdppGqNGc-20" edge="1">
          <mxGeometry relative="1" as="geometry" />
        </mxCell>
        <mxCell id="FvBfCpJyxH-kdppGqNGc-19" value="&lt;font style=&quot;font-size: 18px;&quot;&gt;相关性分析&lt;/font&gt;" style="rounded=1;whiteSpace=wrap;html=1;" parent="1" vertex="1">
          <mxGeometry x="645.75" y="505.24" width="160" height="40" as="geometry" />
        </mxCell>
        <mxCell id="FvBfCpJyxH-kdppGqNGc-69" style="edgeStyle=orthogonalEdgeStyle;rounded=0;orthogonalLoop=1;jettySize=auto;html=1;" parent="1" source="FvBfCpJyxH-kdppGqNGc-20" target="FvBfCpJyxH-kdppGqNGc-22" edge="1">
          <mxGeometry relative="1" as="geometry" />
        </mxCell>
        <mxCell id="FvBfCpJyxH-kdppGqNGc-20" value="&lt;span style=&quot;font-size: 18px;&quot;&gt;OpenFE特征生成&lt;/span&gt;" style="rounded=1;whiteSpace=wrap;html=1;" parent="1" vertex="1">
          <mxGeometry x="440.75" y="505.24" width="160" height="40" as="geometry" />
        </mxCell>
        <mxCell id="FvBfCpJyxH-kdppGqNGc-67" style="edgeStyle=orthogonalEdgeStyle;rounded=0;orthogonalLoop=1;jettySize=auto;html=1;entryX=0.5;entryY=0;entryDx=0;entryDy=0;" parent="1" source="FvBfCpJyxH-kdppGqNGc-21" target="FvBfCpJyxH-kdppGqNGc-19" edge="1">
          <mxGeometry relative="1" as="geometry" />
        </mxCell>
        <mxCell id="FvBfCpJyxH-kdppGqNGc-21" value="&lt;font style=&quot;font-size: 18px;&quot;&gt;Borderline-SMOTE均衡化处理&lt;/font&gt;" style="rounded=1;whiteSpace=wrap;html=1;" parent="1" vertex="1">
          <mxGeometry x="645.75" y="431.24" width="160" height="40" as="geometry" />
        </mxCell>
        <mxCell id="FvBfCpJyxH-kdppGqNGc-22" value="&lt;span style=&quot;font-size: 18px;&quot;&gt;特征选择&lt;/span&gt;" style="rounded=1;whiteSpace=wrap;html=1;" parent="1" vertex="1">
          <mxGeometry x="225.75" y="505.24" width="160" height="40" as="geometry" />
        </mxCell>
        <mxCell id="FvBfCpJyxH-kdppGqNGc-50" style="edgeStyle=orthogonalEdgeStyle;rounded=0;orthogonalLoop=1;jettySize=auto;html=1;entryX=0.5;entryY=0;entryDx=0;entryDy=0;" parent="1" source="FvBfCpJyxH-kdppGqNGc-23" target="FvBfCpJyxH-kdppGqNGc-29" edge="1">
          <mxGeometry relative="1" as="geometry" />
        </mxCell>
        <mxCell id="FvBfCpJyxH-kdppGqNGc-23" value="&lt;font style=&quot;font-size: 18px;&quot;&gt;风机叶片结冰诊断模型&lt;/font&gt;" style="rounded=1;whiteSpace=wrap;html=1;" parent="1" vertex="1">
          <mxGeometry x="12" y="669" width="147.5" height="60" as="geometry" />
        </mxCell>
        <mxCell id="FvBfCpJyxH-kdppGqNGc-24" value="&lt;span style=&quot;font-size: 18px;&quot;&gt;CNN提取全局特征&lt;/span&gt;" style="rounded=1;whiteSpace=wrap;html=1;" parent="1" vertex="1">
          <mxGeometry x="235.75" y="644" width="160" height="40" as="geometry" />
        </mxCell>
        <mxCell id="FvBfCpJyxH-kdppGqNGc-25" value="&lt;span style=&quot;font-size: 18px;&quot;&gt;GRU-Att提取时间特征&lt;/span&gt;" style="rounded=1;whiteSpace=wrap;html=1;" parent="1" vertex="1">
          <mxGeometry x="403.25" y="644" width="190" height="40" as="geometry" />
        </mxCell>
        <mxCell id="FvBfCpJyxH-kdppGqNGc-26" value="&lt;span style=&quot;font-size: 18px;&quot;&gt;评价指标：精确率、召回率、准确率、F1值等&lt;/span&gt;" style="rounded=1;whiteSpace=wrap;html=1;" parent="1" vertex="1">
          <mxGeometry x="602.75" y="629" width="190" height="70" as="geometry" />
        </mxCell>
        <mxCell id="FvBfCpJyxH-kdppGqNGc-59" style="edgeStyle=orthogonalEdgeStyle;rounded=0;orthogonalLoop=1;jettySize=auto;html=1;entryX=0.5;entryY=1;entryDx=0;entryDy=0;endArrow=none;endFill=0;startArrow=classic;startFill=1;" parent="1" source="FvBfCpJyxH-kdppGqNGc-27" target="FvBfCpJyxH-kdppGqNGc-38" edge="1">
          <mxGeometry relative="1" as="geometry" />
        </mxCell>
        <mxCell id="FvBfCpJyxH-kdppGqNGc-27" value="&lt;span style=&quot;font-size: 18px;&quot;&gt;实验结果及常见算法对比&lt;/span&gt;" style="rounded=1;whiteSpace=wrap;html=1;" parent="1" vertex="1">
          <mxGeometry x="405.75" y="739" width="215" height="45" as="geometry" />
        </mxCell>
        <mxCell id="FvBfCpJyxH-kdppGqNGc-55" style="edgeStyle=orthogonalEdgeStyle;rounded=0;orthogonalLoop=1;jettySize=auto;html=1;entryX=0;entryY=0.5;entryDx=0;entryDy=0;endArrow=none;endFill=0;" parent="1" source="FvBfCpJyxH-kdppGqNGc-29" target="FvBfCpJyxH-kdppGqNGc-37" edge="1">
          <mxGeometry relative="1" as="geometry" />
        </mxCell>
        <mxCell id="FvBfCpJyxH-kdppGqNGc-29" value="&lt;font style=&quot;font-size: 18px;&quot;&gt;总结与展望&lt;/font&gt;" style="rounded=1;whiteSpace=wrap;html=1;" parent="1" vertex="1">
          <mxGeometry x="18.25" y="850" width="135" height="40" as="geometry" />
        </mxCell>
        <mxCell id="FvBfCpJyxH-kdppGqNGc-30" value="&lt;span style=&quot;font-size: 18px;&quot;&gt;研究结论&lt;/span&gt;" style="rounded=1;whiteSpace=wrap;html=1;" parent="1" vertex="1">
          <mxGeometry x="225.75" y="850" width="120" height="40" as="geometry" />
        </mxCell>
        <mxCell id="FvBfCpJyxH-kdppGqNGc-31" value="&lt;span style=&quot;font-size: 18px;&quot;&gt;维护建议&lt;/span&gt;" style="rounded=1;whiteSpace=wrap;html=1;" parent="1" vertex="1">
          <mxGeometry x="379.25" y="850" width="120" height="40" as="geometry" />
        </mxCell>
        <mxCell id="FvBfCpJyxH-kdppGqNGc-32" value="&lt;span style=&quot;font-size: 18px;&quot;&gt;研究不足&lt;/span&gt;" style="rounded=1;whiteSpace=wrap;html=1;" parent="1" vertex="1">
          <mxGeometry x="535.75" y="850" width="120" height="40" as="geometry" />
        </mxCell>
        <mxCell id="FvBfCpJyxH-kdppGqNGc-33" value="&lt;span style=&quot;font-size: 18px;&quot;&gt;研究展望&lt;/span&gt;" style="rounded=1;whiteSpace=wrap;html=1;" parent="1" vertex="1">
          <mxGeometry x="685.75" y="850" width="120" height="40" as="geometry" />
        </mxCell>
      </root>
    </mxGraphModel>
  </diagram>
</mxfile>
